<svg width="35" height="36" viewBox="0 0 35 36" fill="none" xmlns="http://www.w3.org/2000/svg">
<path fill-rule="evenodd" clip-rule="evenodd" d="M7.59681 1.04564C14.1788 0.31812 20.8211 0.31812 27.4031 1.04564C31.0473 1.45341 33.9874 4.31843 34.415 7.96925C35.195 14.6338 35.195 21.3662 34.415 28.0307C33.9874 31.6816 31.0473 34.5466 27.4031 34.9544C20.8211 35.6819 14.1788 35.6819 7.59681 34.9544C3.95255 34.5466 1.01246 31.6816 0.584846 28.0307C-0.194949 21.3669 -0.194949 14.6352 0.584846 7.97138C0.801135 6.19772 1.61107 4.54896 2.88338 3.2923C4.15569 2.03564 5.81581 1.24473 7.59469 1.04776M17.4999 7.39583C17.9231 7.39583 18.3289 7.56364 18.6282 7.86236C18.9274 8.16108 19.0955 8.56623 19.0955 8.98868V16.4071H26.5266C26.9497 16.4071 27.3556 16.575 27.6548 16.8737C27.954 17.1724 28.1221 17.5775 28.1221 18C28.1221 18.4225 27.954 18.8276 27.6548 19.1263C27.3556 19.425 26.9497 19.5929 26.5266 19.5929H19.0955V27.0113C19.0955 27.4338 18.9274 27.8389 18.6282 28.1376C18.3289 28.4364 17.9231 28.6042 17.4999 28.6042C17.0768 28.6042 16.6709 28.4364 16.3717 28.1376C16.0725 27.8389 15.9044 27.4338 15.9044 27.0113V19.5929H8.47331C8.05014 19.5929 7.6443 19.425 7.34508 19.1263C7.04585 18.8276 6.87775 18.4225 6.87775 18C6.87775 17.5775 7.04585 17.1724 7.34508 16.8737C7.6443 16.575 8.05014 16.4071 8.47331 16.4071H15.9044V8.98868C15.9044 8.56623 16.0725 8.16108 16.3717 7.86236C16.6709 7.56364 17.0768 7.39583 17.4999 7.39583Z" fill="#1F2937"/>
</svg>
