<svg width="35" height="36" viewBox="0 0 35 36" fill="none" xmlns="http://www.w3.org/2000/svg">
<path d="M0 31.5V13.5C0 12.8667 0.155312 12.2667 0.465937 11.7C0.776562 11.1333 1.20458 10.6667 1.75 10.3L14.875 1.3C15.6406 0.766667 16.5156 0.5 17.5 0.5C18.4844 0.5 19.3594 0.766667 20.125 1.3L33.25 10.3C33.7969 10.6667 34.2256 11.1333 34.5362 11.7C34.8469 12.2667 35.0014 12.8667 35 13.5V31.5C35 32.6 34.5712 33.542 33.7137 34.326C32.8562 35.11 31.8267 35.5013 30.625 35.5H24.0625C23.4427 35.5 22.9235 35.308 22.505 34.924C22.0865 34.54 21.8765 34.0653 21.875 33.5V23.5C21.875 22.9333 21.665 22.4587 21.245 22.076C20.825 21.6933 20.3058 21.5013 19.6875 21.5H15.3125C14.6927 21.5 14.1735 21.692 13.755 22.076C13.3365 22.46 13.1265 22.9347 13.125 23.5V33.5C13.125 34.0667 12.915 34.542 12.495 34.926C12.075 35.31 11.5558 35.5013 10.9375 35.5H4.375C3.17187 35.5 2.14229 35.1087 1.28625 34.326C0.430208 33.5433 0.00145833 32.6013 0 31.5Z" fill="#1F2937"/>
</svg>
