<svg width="35" height="36" viewBox="0 0 35 36" fill="none" xmlns="http://www.w3.org/2000/svg">
<path d="M32.1403 19.1548C31.8548 18.8355 31.6973 18.425 31.6973 18C31.6973 17.575 31.8548 17.1645 32.1403 16.8452L34.4204 14.3255C34.6716 14.0502 34.8276 13.7038 34.866 13.336C34.9044 12.9682 34.8232 12.5979 34.6341 12.2783L31.0716 6.2241C30.8844 5.90481 30.5993 5.65171 30.2571 5.5009C29.9148 5.35009 29.5329 5.30925 29.1656 5.38422L25.8168 6.04913C25.3907 6.13561 24.9471 6.0659 24.5697 5.85315C24.1923 5.6404 23.9073 5.29932 23.7683 4.89428L22.6818 1.69222C22.5623 1.34468 22.3346 1.04282 22.0309 0.829309C21.7273 0.615797 21.363 0.501433 20.9896 0.50238H13.8645C13.476 0.482464 13.0916 0.587989 12.77 0.802838C12.4483 1.01769 12.2071 1.33005 12.0832 1.69222L11.0857 4.89428C10.9467 5.29932 10.6617 5.6404 10.2843 5.85315C9.90692 6.0659 9.46332 6.13561 9.0372 6.04913L5.59935 5.38422C5.2512 5.33589 4.89628 5.38985 4.5793 5.53931C4.26231 5.68877 3.99745 5.92704 3.81807 6.2241L0.255525 12.2783C0.0616517 12.5944 -0.0255202 12.9626 0.00647234 13.3303C0.0384649 13.698 0.187984 14.0463 0.433653 14.3255L2.69587 16.8452C2.98144 17.1645 3.13893 17.575 3.13893 18C3.13893 18.425 2.98144 18.8355 2.69587 19.1548L0.433653 21.6745C0.187984 21.9537 0.0384649 22.302 0.00647234 22.6697C-0.0255202 23.0374 0.0616517 23.4056 0.255525 23.7217L3.81807 29.7759C4.00528 30.0952 4.29032 30.3483 4.63256 30.4991C4.97481 30.6499 5.35678 30.6907 5.72404 30.6158L9.07283 29.9509C9.49894 29.8644 9.94254 29.9341 10.3199 30.1468C10.6973 30.3596 10.9824 30.7007 11.1213 31.1057L12.2079 34.3078C12.3318 34.6699 12.573 34.9823 12.8947 35.1972C13.2163 35.412 13.6007 35.5175 13.9891 35.4976H21.1142C21.4877 35.4986 21.852 35.3842 22.1556 35.1707C22.4593 34.9572 22.687 34.6553 22.8064 34.3078L23.893 31.1057C24.032 30.7007 24.317 30.3596 24.6944 30.1468C25.0718 29.9341 25.5154 29.8644 25.9415 29.9509L29.2903 30.6158C29.6575 30.6907 30.0395 30.6499 30.3818 30.4991C30.724 30.3483 31.009 30.0952 31.1963 29.7759L34.7588 23.7217C34.9479 23.4021 35.0291 23.0318 34.9907 22.664C34.9523 22.2962 34.7963 21.9498 34.545 21.6745L32.1403 19.1548ZM29.4862 21.4995L30.9112 23.0743L28.6312 26.9588L26.5293 26.5388C25.2464 26.2812 23.9119 26.4953 22.779 27.1404C21.6462 27.7855 20.7939 28.8167 20.3839 30.0384L19.707 31.9981H15.147L14.5057 30.0034C14.0958 28.7818 13.2435 27.7505 12.1106 27.1054C10.9778 26.4603 9.64323 26.2462 8.36032 26.5038L6.25842 26.9238L3.94276 23.0568L5.36778 21.482C6.24409 20.5196 6.72855 19.2737 6.72855 17.9825C6.72855 16.6913 6.24409 15.4454 5.36778 14.483L3.94276 12.9082L6.22279 9.05872L8.3247 9.47866C9.60761 9.73626 10.9421 9.52219 12.075 8.87709C13.2078 8.23198 14.0601 7.20075 14.4701 5.97914L15.147 4.0019H19.707L20.3839 5.99663C20.7939 7.21824 21.6462 8.24948 22.779 8.89459C23.9119 9.53969 25.2464 9.75376 26.5293 9.49616L28.6312 9.07621L30.9112 12.9607L29.4862 14.5355C28.6198 15.4957 28.1413 16.7344 28.1413 18.0175C28.1413 19.3006 28.6198 20.5393 29.4862 21.4995ZM17.427 11.001C16.0178 11.001 14.6402 11.4114 13.4685 12.1805C12.2968 12.9496 11.3836 14.0427 10.8443 15.3216C10.305 16.6005 10.1639 18.0078 10.4388 19.3654C10.7137 20.7231 11.3923 21.9702 12.3888 22.9491C13.3853 23.9279 14.6548 24.5945 16.037 24.8646C17.4191 25.1346 18.8517 24.996 20.1537 24.4663C21.4556 23.9365 22.5684 23.0394 23.3513 21.8885C24.1342 20.7375 24.5521 19.3843 24.5521 18C24.5521 16.1437 23.8014 14.3635 22.4652 13.0509C21.129 11.7383 19.3167 11.001 17.427 11.001ZM17.427 21.4995C16.7224 21.4995 16.0336 21.2943 15.4478 20.9097C14.8619 20.5252 14.4053 19.9787 14.1356 19.3392C13.866 18.6998 13.7954 17.9961 13.9329 17.3173C14.0704 16.6384 14.4097 16.0149 14.9079 15.5255C15.4061 15.036 16.0409 14.7027 16.732 14.5677C17.4231 14.4327 18.1394 14.502 18.7903 14.7669C19.4413 15.0317 19.9977 15.4803 20.3892 16.0558C20.7806 16.6313 20.9896 17.3079 20.9896 18C20.9896 18.9281 20.6142 19.8182 19.9461 20.4745C19.278 21.1308 18.3719 21.4995 17.427 21.4995Z" fill="#1F2937"/>
</svg>
