<svg width="35" height="36" viewBox="0 0 35 36" fill="none" xmlns="http://www.w3.org/2000/svg">
<path fill-rule="evenodd" clip-rule="evenodd" d="M23.8639 13.227C23.8639 14.9148 23.1934 16.5334 22 17.7268C20.8066 18.9202 19.188 19.5907 17.5002 19.5907C15.8125 19.5907 14.1939 18.9202 13.0005 17.7268C11.807 16.5334 11.1366 14.9148 11.1366 13.227C11.1366 11.5393 11.807 9.92068 13.0005 8.72727C14.1939 7.53386 15.8125 6.8634 17.5002 6.8634C19.188 6.8634 20.8066 7.53386 22 8.72727C23.1934 9.92068 23.8639 11.5393 23.8639 13.227ZM20.6821 13.227C20.6821 14.0709 20.3468 14.8802 19.7501 15.4769C19.1534 16.0736 18.3441 16.4089 17.5002 16.4089C16.6564 16.4089 15.8471 16.0736 15.2503 15.4769C14.6536 14.8802 14.3184 14.0709 14.3184 13.227C14.3184 12.3832 14.6536 11.5739 15.2503 10.9772C15.8471 10.3804 16.6564 10.0452 17.5002 10.0452C18.3441 10.0452 19.1534 10.3804 19.7501 10.9772C20.3468 11.5739 20.6821 12.3832 20.6821 13.227Z" fill="#1F2937"/>
<path fill-rule="evenodd" clip-rule="evenodd" d="M17.5 0.5C7.83523 0.5 0 8.33523 0 18C0 27.6648 7.83523 35.5 17.5 35.5C27.1648 35.5 35 27.6648 35 18C35 8.33523 27.1648 0.5 17.5 0.5ZM3.18182 18C3.18182 21.325 4.31614 24.3859 6.21727 26.8168C7.55275 25.0638 9.27524 23.6432 11.2503 22.6657C13.2254 21.6882 15.3997 21.1804 17.6034 21.1818C19.7788 21.1793 21.926 21.6736 23.8813 22.627C25.8367 23.5804 27.5484 24.9677 28.8861 26.6832C30.2646 24.8753 31.1927 22.7651 31.5937 20.5273C31.9947 18.2895 31.8571 15.9884 31.1922 13.8143C30.5273 11.6402 29.3542 9.65576 27.7701 8.02506C26.186 6.39436 24.2363 5.16432 22.0824 4.43672C19.9285 3.70912 17.6324 3.50486 15.3839 3.84087C13.1354 4.17687 10.9992 5.04346 9.15213 6.36895C7.30505 7.69443 5.80015 9.4407 4.76196 11.4633C3.72376 13.4858 3.18211 15.7265 3.18182 18ZM17.5 32.3182C14.213 32.3235 11.0252 31.1927 8.47636 29.1173C9.5022 27.6483 10.8678 26.4489 12.4569 25.6212C14.0461 24.7935 15.8117 24.3621 17.6034 24.3636C19.3728 24.3621 21.117 24.7828 22.6911 25.5907C24.2652 26.3987 25.6239 27.5706 26.6541 29.0091C24.0855 31.1521 20.8451 32.3234 17.5 32.3182Z" fill="#1F2937"/>
</svg>
